<mxfile host="app.diagrams.net" modified="2022-11-04T06:38:53.428Z" agent="5.0 (X11; Linux x86_64) AppleWebKit/537.36 (KHTML, like Gecko) Chrome/106.0.0.0 Safari/537.36" etag="gGAm429OXRY0JxiZoRCE" version="20.5.1" type="github">
  <diagram id="KrYalWXMyLkgCCkrEA-g" name="第 1 页">
    <mxGraphModel dx="1422" dy="748" grid="1" gridSize="10" guides="1" tooltips="1" connect="1" arrows="1" fold="1" page="1" pageScale="1" pageWidth="827" pageHeight="1169" math="0" shadow="0">
      <root>
        <mxCell id="0" />
        <mxCell id="1" parent="0" />
        <mxCell id="2kgrnsm0pbkOEN8eJgqQ-18" value="" style="group" vertex="1" connectable="0" parent="1">
          <mxGeometry x="174" y="190" width="480" height="120" as="geometry" />
        </mxCell>
        <mxCell id="2kgrnsm0pbkOEN8eJgqQ-9" value="" style="group" vertex="1" connectable="0" parent="2kgrnsm0pbkOEN8eJgqQ-18">
          <mxGeometry width="190" height="120" as="geometry" />
        </mxCell>
        <mxCell id="2kgrnsm0pbkOEN8eJgqQ-5" value="c" style="rounded=1;whiteSpace=wrap;html=1;" vertex="1" parent="2kgrnsm0pbkOEN8eJgqQ-9">
          <mxGeometry width="190" height="120" as="geometry" />
        </mxCell>
        <mxCell id="2kgrnsm0pbkOEN8eJgqQ-6" value="" style="rounded=1;whiteSpace=wrap;html=1;" vertex="1" parent="2kgrnsm0pbkOEN8eJgqQ-9">
          <mxGeometry x="45" y="30" width="140" height="80" as="geometry" />
        </mxCell>
        <mxCell id="2kgrnsm0pbkOEN8eJgqQ-2" value="静态文件" style="rounded=0;whiteSpace=wrap;html=1;" vertex="1" parent="2kgrnsm0pbkOEN8eJgqQ-9">
          <mxGeometry x="85" y="60" width="90" height="40" as="geometry" />
        </mxCell>
        <mxCell id="2kgrnsm0pbkOEN8eJgqQ-7" value="Nginx" style="text;html=1;align=center;verticalAlign=middle;resizable=0;points=[];autosize=1;strokeColor=none;fillColor=none;" vertex="1" parent="2kgrnsm0pbkOEN8eJgqQ-9">
          <mxGeometry x="45" y="30" width="50" height="30" as="geometry" />
        </mxCell>
        <mxCell id="2kgrnsm0pbkOEN8eJgqQ-8" value="客户端部署" style="text;html=1;align=center;verticalAlign=middle;resizable=0;points=[];autosize=1;strokeColor=none;fillColor=none;" vertex="1" parent="2kgrnsm0pbkOEN8eJgqQ-9">
          <mxGeometry width="80" height="30" as="geometry" />
        </mxCell>
        <mxCell id="2kgrnsm0pbkOEN8eJgqQ-10" value="" style="group" vertex="1" connectable="0" parent="2kgrnsm0pbkOEN8eJgqQ-18">
          <mxGeometry x="290" width="190" height="120" as="geometry" />
        </mxCell>
        <mxCell id="2kgrnsm0pbkOEN8eJgqQ-11" value="c" style="rounded=1;whiteSpace=wrap;html=1;" vertex="1" parent="2kgrnsm0pbkOEN8eJgqQ-10">
          <mxGeometry width="190" height="120" as="geometry" />
        </mxCell>
        <mxCell id="2kgrnsm0pbkOEN8eJgqQ-12" value="" style="rounded=1;whiteSpace=wrap;html=1;" vertex="1" parent="2kgrnsm0pbkOEN8eJgqQ-10">
          <mxGeometry x="45" y="30" width="140" height="80" as="geometry" />
        </mxCell>
        <mxCell id="2kgrnsm0pbkOEN8eJgqQ-13" value="服务" style="rounded=0;whiteSpace=wrap;html=1;" vertex="1" parent="2kgrnsm0pbkOEN8eJgqQ-10">
          <mxGeometry x="85" y="60" width="90" height="40" as="geometry" />
        </mxCell>
        <mxCell id="2kgrnsm0pbkOEN8eJgqQ-14" value="Docker" style="text;html=1;align=center;verticalAlign=middle;resizable=0;points=[];autosize=1;strokeColor=none;fillColor=none;" vertex="1" parent="2kgrnsm0pbkOEN8eJgqQ-10">
          <mxGeometry x="40" y="30" width="60" height="30" as="geometry" />
        </mxCell>
        <mxCell id="2kgrnsm0pbkOEN8eJgqQ-15" value="服务端部署" style="text;html=1;align=center;verticalAlign=middle;resizable=0;points=[];autosize=1;strokeColor=none;fillColor=none;" vertex="1" parent="2kgrnsm0pbkOEN8eJgqQ-10">
          <mxGeometry width="80" height="30" as="geometry" />
        </mxCell>
        <mxCell id="2kgrnsm0pbkOEN8eJgqQ-16" style="edgeStyle=orthogonalEdgeStyle;rounded=0;orthogonalLoop=1;jettySize=auto;html=1;exitX=1;exitY=0.5;exitDx=0;exitDy=0;entryX=0;entryY=0.5;entryDx=0;entryDy=0;shape=flexArrow;startArrow=block;" edge="1" parent="2kgrnsm0pbkOEN8eJgqQ-18" source="2kgrnsm0pbkOEN8eJgqQ-5" target="2kgrnsm0pbkOEN8eJgqQ-11">
          <mxGeometry relative="1" as="geometry" />
        </mxCell>
      </root>
    </mxGraphModel>
  </diagram>
</mxfile>
